<mxfile host="app.diagrams.net" modified="2023-09-24T18:07:26.732Z" agent="Mozilla/5.0 (Windows NT 10.0; Win64; x64) AppleWebKit/537.36 (KHTML, like Gecko) Chrome/116.0.0.0 Safari/537.36" etag="RWlBMr842M29Y1ggcN5y" version="21.7.5" type="github">
  <diagram id="prtHgNgQTEPvFCAcTncT" name="Page-1">
    <mxGraphModel dx="820" dy="599" grid="1" gridSize="10" guides="1" tooltips="1" connect="1" arrows="1" fold="1" page="1" pageScale="1" pageWidth="827" pageHeight="1169" math="0" shadow="0">
      <root>
        <mxCell id="0" />
        <mxCell id="1" parent="0" />
        <mxCell id="dNxyNK7c78bLwvsdeMH5-11" value="Organisation Chart â€“ Purpose or Function" style="swimlane;html=1;startSize=20;horizontal=1;containerType=tree;glass=0;labelBackgroundColor=none;fillColor=#09555B;strokeColor=#BAC8D3;fontColor=#EEEEEE;" parent="1" vertex="1">
          <mxGeometry x="40" y="80" width="710" height="510" as="geometry" />
        </mxCell>
        <mxCell id="swh1aqXrDWchYslmy2ap-25" style="edgeStyle=orthogonalEdgeStyle;rounded=0;orthogonalLoop=1;jettySize=auto;html=1;entryX=0.411;entryY=0.059;entryDx=0;entryDy=0;entryPerimeter=0;labelBackgroundColor=none;fontColor=default;strokeColor=#0B4D6A;" edge="1" parent="dNxyNK7c78bLwvsdeMH5-11" source="swh1aqXrDWchYslmy2ap-1" target="swh1aqXrDWchYslmy2ap-2">
          <mxGeometry relative="1" as="geometry">
            <Array as="points">
              <mxPoint x="284" y="150" />
              <mxPoint x="69" y="150" />
            </Array>
          </mxGeometry>
        </mxCell>
        <mxCell id="swh1aqXrDWchYslmy2ap-26" style="edgeStyle=orthogonalEdgeStyle;rounded=0;orthogonalLoop=1;jettySize=auto;html=1;labelBackgroundColor=none;fontColor=default;strokeColor=#0B4D6A;" edge="1" parent="dNxyNK7c78bLwvsdeMH5-11" source="swh1aqXrDWchYslmy2ap-1" target="swh1aqXrDWchYslmy2ap-3">
          <mxGeometry relative="1" as="geometry">
            <Array as="points">
              <mxPoint x="284" y="148" />
              <mxPoint x="230" y="148" />
            </Array>
          </mxGeometry>
        </mxCell>
        <mxCell id="swh1aqXrDWchYslmy2ap-27" style="edgeStyle=orthogonalEdgeStyle;rounded=0;orthogonalLoop=1;jettySize=auto;html=1;entryX=0.5;entryY=0;entryDx=0;entryDy=0;labelBackgroundColor=none;fontColor=default;strokeColor=#0B4D6A;" edge="1" parent="dNxyNK7c78bLwvsdeMH5-11" source="swh1aqXrDWchYslmy2ap-1" target="swh1aqXrDWchYslmy2ap-4">
          <mxGeometry relative="1" as="geometry" />
        </mxCell>
        <mxCell id="swh1aqXrDWchYslmy2ap-28" style="edgeStyle=orthogonalEdgeStyle;rounded=0;orthogonalLoop=1;jettySize=auto;html=1;entryX=0.587;entryY=0.022;entryDx=0;entryDy=0;entryPerimeter=0;labelBackgroundColor=none;fontColor=default;strokeColor=#0B4D6A;" edge="1" parent="dNxyNK7c78bLwvsdeMH5-11" source="swh1aqXrDWchYslmy2ap-1" target="swh1aqXrDWchYslmy2ap-5">
          <mxGeometry relative="1" as="geometry">
            <Array as="points">
              <mxPoint x="284" y="150" />
              <mxPoint x="540" y="150" />
            </Array>
          </mxGeometry>
        </mxCell>
        <mxCell id="swh1aqXrDWchYslmy2ap-1" value="Managing Director" style="rounded=0;whiteSpace=wrap;html=1;labelBackgroundColor=none;fillColor=#09555B;strokeColor=#BAC8D3;fontColor=#EEEEEE;" vertex="1" parent="dNxyNK7c78bLwvsdeMH5-11">
          <mxGeometry x="224" y="25" width="120" height="60" as="geometry" />
        </mxCell>
        <mxCell id="swh1aqXrDWchYslmy2ap-2" value="Research &amp;amp; Development" style="rounded=0;whiteSpace=wrap;html=1;labelBackgroundColor=none;fillColor=#09555B;strokeColor=#BAC8D3;fontColor=#EEEEEE;" vertex="1" parent="dNxyNK7c78bLwvsdeMH5-11">
          <mxGeometry x="20" y="205" width="120" height="60" as="geometry" />
        </mxCell>
        <mxCell id="swh1aqXrDWchYslmy2ap-32" style="edgeStyle=orthogonalEdgeStyle;rounded=0;orthogonalLoop=1;jettySize=auto;html=1;labelBackgroundColor=none;fontColor=default;strokeColor=#0B4D6A;" edge="1" parent="dNxyNK7c78bLwvsdeMH5-11" source="swh1aqXrDWchYslmy2ap-3" target="swh1aqXrDWchYslmy2ap-31">
          <mxGeometry relative="1" as="geometry" />
        </mxCell>
        <mxCell id="swh1aqXrDWchYslmy2ap-35" style="edgeStyle=orthogonalEdgeStyle;rounded=0;orthogonalLoop=1;jettySize=auto;html=1;entryX=0.5;entryY=0;entryDx=0;entryDy=0;labelBackgroundColor=none;fontColor=default;strokeColor=#0B4D6A;" edge="1" parent="dNxyNK7c78bLwvsdeMH5-11" source="swh1aqXrDWchYslmy2ap-3" target="swh1aqXrDWchYslmy2ap-33">
          <mxGeometry relative="1" as="geometry" />
        </mxCell>
        <mxCell id="swh1aqXrDWchYslmy2ap-37" style="edgeStyle=orthogonalEdgeStyle;rounded=0;orthogonalLoop=1;jettySize=auto;html=1;exitX=0.75;exitY=1;exitDx=0;exitDy=0;labelBackgroundColor=none;fontColor=default;strokeColor=#0B4D6A;" edge="1" parent="dNxyNK7c78bLwvsdeMH5-11" source="swh1aqXrDWchYslmy2ap-3">
          <mxGeometry relative="1" as="geometry">
            <mxPoint x="280" y="230" as="sourcePoint" />
            <mxPoint x="510" y="350" as="targetPoint" />
            <Array as="points">
              <mxPoint x="260" y="320" />
              <mxPoint x="510" y="320" />
            </Array>
          </mxGeometry>
        </mxCell>
        <mxCell id="swh1aqXrDWchYslmy2ap-3" value="Production" style="rounded=0;whiteSpace=wrap;html=1;labelBackgroundColor=none;fillColor=#09555B;strokeColor=#BAC8D3;fontColor=#EEEEEE;" vertex="1" parent="dNxyNK7c78bLwvsdeMH5-11">
          <mxGeometry x="170" y="210" width="120" height="60" as="geometry" />
        </mxCell>
        <mxCell id="swh1aqXrDWchYslmy2ap-5" value="Finance" style="rounded=0;whiteSpace=wrap;html=1;labelBackgroundColor=none;fillColor=#09555B;strokeColor=#BAC8D3;fontColor=#EEEEEE;" vertex="1" parent="dNxyNK7c78bLwvsdeMH5-11">
          <mxGeometry x="469.99999999999994" y="205" width="120" height="60" as="geometry" />
        </mxCell>
        <mxCell id="swh1aqXrDWchYslmy2ap-4" value="Marketing" style="rounded=0;whiteSpace=wrap;html=1;labelBackgroundColor=none;fillColor=#09555B;strokeColor=#BAC8D3;fontColor=#EEEEEE;" vertex="1" parent="dNxyNK7c78bLwvsdeMH5-11">
          <mxGeometry x="315" y="205" width="120" height="60" as="geometry" />
        </mxCell>
        <mxCell id="swh1aqXrDWchYslmy2ap-30" style="edgeStyle=orthogonalEdgeStyle;rounded=0;orthogonalLoop=1;jettySize=auto;html=1;labelBackgroundColor=none;fontColor=default;strokeColor=#0B4D6A;" edge="1" parent="dNxyNK7c78bLwvsdeMH5-11" source="swh1aqXrDWchYslmy2ap-29">
          <mxGeometry relative="1" as="geometry">
            <mxPoint x="280" y="100" as="targetPoint" />
          </mxGeometry>
        </mxCell>
        <mxCell id="swh1aqXrDWchYslmy2ap-29" value="Human Resourses Management" style="rounded=0;whiteSpace=wrap;html=1;labelBackgroundColor=none;fillColor=#09555B;strokeColor=#BAC8D3;fontColor=#EEEEEE;" vertex="1" parent="dNxyNK7c78bLwvsdeMH5-11">
          <mxGeometry x="450" y="70" width="120" height="60" as="geometry" />
        </mxCell>
        <mxCell id="swh1aqXrDWchYslmy2ap-31" value="Product 1" style="rounded=0;whiteSpace=wrap;html=1;labelBackgroundColor=none;fillColor=#09555B;strokeColor=#BAC8D3;fontColor=#EEEEEE;" vertex="1" parent="dNxyNK7c78bLwvsdeMH5-11">
          <mxGeometry x="120" y="360" width="120" height="60" as="geometry" />
        </mxCell>
        <mxCell id="swh1aqXrDWchYslmy2ap-34" value="Product 3" style="rounded=0;whiteSpace=wrap;html=1;labelBackgroundColor=none;fillColor=#09555B;strokeColor=#BAC8D3;fontColor=#EEEEEE;" vertex="1" parent="dNxyNK7c78bLwvsdeMH5-11">
          <mxGeometry x="460" y="360" width="120" height="60" as="geometry" />
        </mxCell>
        <mxCell id="swh1aqXrDWchYslmy2ap-33" value="Product 2" style="rounded=0;whiteSpace=wrap;html=1;labelBackgroundColor=none;fillColor=#09555B;strokeColor=#BAC8D3;fontColor=#EEEEEE;" vertex="1" parent="dNxyNK7c78bLwvsdeMH5-11">
          <mxGeometry x="290" y="360" width="120" height="60" as="geometry" />
        </mxCell>
      </root>
    </mxGraphModel>
  </diagram>
</mxfile>
